<svg xmlns="http://www.w3.org/2000/svg"  viewBox="0 0 100 100" width="100px" height="100px"><circle cx="77" cy="13" r="1" fill="#f1bc19"/><circle cx="50" cy="50" r="37" fill="#e6edb7"/><circle cx="83" cy="15" r="4" fill="#f1bc19"/><circle cx="87" cy="24" r="2" fill="#88ae45"/><circle cx="81" cy="76" r="2" fill="#fbcd59"/><circle cx="15" cy="63" r="4" fill="#fbcd59"/><circle cx="25" cy="87" r="2" fill="#88ae45"/><circle cx="18.5" cy="51.5" r="2.5" fill="#fff"/><circle cx="79.5" cy="33.5" r="1.5" fill="#fff"/><path fill="#6869ad" d="M66.3,72.3H33.7c-3.314,0-6-2.686-6-6V33.7c0-3.314,2.686-6,6-6h32.6c3.314,0,6,2.686,6,6v32.6 C72.3,69.614,69.614,72.3,66.3,72.3z"/><rect width="11" height="3.5" x="50" y="68.5" fill="#00a5a5"/><path fill="#3678ba" d="M72.3,63v3.3c0,3.31-2.69,6-6,6H61v-4h5.3c3.07,0,5.61-2.32,5.96-5.3H72.3z"/><rect width="11" height="3.5" x="39" y="68.5" fill="#ff991f" transform="rotate(-180 44.5 70.25)"/><path fill="#ea6075" d="M27.7,63v3.3c0,3.31,2.69,6,6,6H39v-4h-5.3c-3.07,0-5.61-2.32-5.96-5.3H27.7z"/><path fill="#472b29" d="M66.3,73H33.7c-3.694,0-6.7-3.006-6.7-6.7V33.7c0-3.694,3.006-6.7,6.7-6.7h32.6 c3.694,0,6.7,3.006,6.7,6.7v32.6C73,69.994,69.994,73,66.3,73z M33.7,28.4c-2.923,0-5.3,2.377-5.3,5.3v32.6 c0,2.922,2.377,5.3,5.3,5.3h32.6c2.923,0,5.3-2.377,5.3-5.3V33.7c0-2.922-2.377-5.3-5.3-5.3H33.7z"/><path fill="#472b29" d="M66.3,69H33.7c-3.694,0-6.7-3.006-6.7-6.7h1.4c0,2.922,2.377,5.3,5.3,5.3h32.6 c2.923,0,5.3-2.377,5.3-5.3H73C73,65.994,69.994,69,66.3,69z"/><path fill="#fdfcef" d="M49.473,61.467c-3.377,0-6.664-1.325-9.14-3.801c-5.054-5.054-5.054-13.279,0.001-18.333 c2.448-2.448,5.703-3.796,9.166-3.796s6.718,1.348,9.166,3.796c3.457,3.456,4.67,8.494,3.166,13.15 c-0.459,1.419-1.982,2.196-3.399,1.739c-1.419-0.458-2.198-1.98-1.739-3.399c0.877-2.716,0.17-5.656-1.846-7.671 c-1.428-1.429-3.328-2.215-5.348-2.215s-3.92,0.786-5.348,2.214c-2.949,2.949-2.949,7.748,0,10.697 c2.017,2.016,4.956,2.726,7.672,1.846c1.414-0.458,2.94,0.32,3.399,1.739c0.459,1.419-0.32,2.94-1.739,3.399 C52.163,61.259,50.81,61.467,49.473,61.467z"/><path fill="#472b29" d="M49.473,61.967c-3.577,0-6.948-1.402-9.493-3.947c-2.539-2.539-3.938-5.92-3.938-9.52 s1.398-6.981,3.938-9.52c2.541-2.542,5.922-3.942,9.52-3.942s6.979,1.4,9.52,3.942c3.591,3.589,4.852,8.822,3.288,13.657 c-0.542,1.678-2.353,2.599-4.027,2.062c-0.813-0.263-1.477-0.827-1.865-1.587c-0.39-0.761-0.46-1.628-0.196-2.442 c0.819-2.537,0.158-5.282-1.724-7.164c-1.334-1.334-3.107-2.068-4.995-2.068c-1.887,0-3.661,0.734-4.995,2.068 c-2.754,2.754-2.754,7.235,0,9.989c1.886,1.885,4.632,2.546,7.164,1.724c0.812-0.263,1.677-0.193,2.44,0.196 c0.762,0.39,1.326,1.052,1.589,1.865c0.264,0.813,0.193,1.68-0.195,2.441c-0.39,0.761-1.052,1.325-1.866,1.588 C52.284,61.746,50.883,61.967,49.473,61.967z M49.5,36.038c-3.33,0-6.46,1.296-8.812,3.649c-2.351,2.35-3.646,5.48-3.646,8.813 s1.294,6.463,3.645,8.813c2.356,2.356,5.477,3.654,8.786,3.654c1.306,0,2.604-0.206,3.857-0.61c0.56-0.181,1.015-0.569,1.282-1.092 c0.268-0.523,0.315-1.119,0.135-1.678s-0.569-1.015-1.093-1.282c-0.524-0.268-1.121-0.314-1.677-0.135 c-2.895,0.937-6.027,0.184-8.18-1.968c-3.144-3.144-3.144-8.259,0-11.403c1.522-1.522,3.548-2.361,5.702-2.361 s4.18,0.838,5.702,2.361c2.148,2.148,2.903,5.282,1.968,8.178c-0.181,0.559-0.133,1.155,0.135,1.679 c0.268,0.523,0.724,0.911,1.282,1.091c1.155,0.372,2.396-0.265,2.77-1.417c1.446-4.476,0.28-9.32-3.044-12.643 C55.96,37.333,52.83,36.038,49.5,36.038z"/><circle cx="60.5" cy="59.5" r="3" fill="#fdfcef"/><path fill="#472b29" d="M60.5,63c-1.93,0-3.5-1.57-3.5-3.5s1.57-3.5,3.5-3.5s3.5,1.57,3.5,3.5S62.43,63,60.5,63z M60.5,57 c-1.379,0-2.5,1.122-2.5,2.5s1.121,2.5,2.5,2.5s2.5-1.122,2.5-2.5S61.879,57,60.5,57z"/><rect width="1" height="4" x="49.5" y="68.3" fill="#472b29"/><rect width="1" height="4" x="60.5" y="68.3" fill="#472b29"/><rect width="1" height="4" x="38.5" y="68.3" fill="#472b29"/></svg>